<svg width="152" height="54" viewBox="0 0 152 54" fill="none" xmlns="http://www.w3.org/2000/svg">
<path d="M25.8774 26.0261L33.0248 25.4533L30.2253 35.3983L25.8774 26.0261Z" fill="#FFBCA4"/>
<mask id="mask0_487_82" style="mask-type:alpha" maskUnits="userSpaceOnUse" x="25" y="25" width="9" height="11">
<path d="M25.8774 26.0261L33.0248 25.4533L30.2253 35.3983L25.8774 26.0261Z" fill="#FFBCA4"/>
</mask>
<g mask="url(#mask0_487_82)">
<circle cx="26.6655" cy="26.1571" r="1.45344" transform="rotate(-4.58245 26.6655 26.1571)" fill="#F6F7FB"/>
<circle cx="29.4665" cy="25.9328" r="1.45344" transform="rotate(-4.58245 29.4665 25.9328)" fill="#F6F7FB"/>
<circle cx="32.2676" cy="25.7082" r="1.45344" transform="rotate(-4.58245 32.2676 25.7082)" fill="#F6F7FB"/>
</g>
<path d="M29.4619 33.7583L30.7175 33.6577L30.2252 35.3982L29.4619 33.7583Z" fill="black"/>
<path d="M22.843 41.854C22.843 43.4132 21.9212 44.6748 19.8877 44.6748V41.854L19.8877 39.0308C21.9212 39.0308 22.843 40.2948 22.843 41.854Z" fill="black"/>
<path d="M19.0303 39.0308H20.0286V44.6739H19.0303V39.0308Z" fill="black"/>
<mask id="mask1_487_82" style="mask-type:alpha" maskUnits="userSpaceOnUse" x="0" y="12" width="19" height="33">
<rect x="0.561279" y="12.5752" width="18.2194" height="32.1959" fill="#D9D9D9"/>
</mask>
<g mask="url(#mask1_487_82)">
<path d="M18.5554 44.6591C15.5131 45.0199 12.4311 44.5052 9.67119 43.1753C6.9113 41.8454 4.58821 39.7556 2.97474 37.1513C1.36128 34.547 0.524442 31.5364 0.562523 28.4731C0.600605 25.4097 1.51202 22.4208 3.18973 19.8575C4.86744 17.2941 7.24176 15.2627 10.0339 14.0018C12.8259 12.7409 15.9199 12.303 18.9522 12.7393C21.9846 13.1757 24.8294 14.4683 27.1527 16.4653C29.476 18.4623 31.1811 21.0808 32.068 24.0132L31.107 24.3038C30.2755 21.5543 28.6766 19.0991 26.4983 17.2266C24.3199 15.3542 21.6524 14.1422 18.8092 13.7331C15.966 13.3239 13.065 13.7346 10.447 14.9168C7.82908 16.099 5.60283 18.0038 4.02975 20.4073C2.45668 22.8108 1.6021 25.6132 1.56639 28.4855C1.53069 31.3579 2.31533 34.1807 3.82817 36.6226C5.34102 39.0644 7.51923 41.0239 10.107 42.2709C12.6948 43.5178 15.7029 43.9864 18.5554 43.648V44.6591Z" fill="#FF7F50"/>
<path d="M18.5345 42.381C15.9224 42.7587 13.2568 42.3891 10.8461 41.3149C8.43532 40.2408 6.37797 38.506 4.91206 36.3113C3.44614 34.1167 2.63159 31.5518 2.56263 28.9135C2.49368 26.2751 3.17315 23.6712 4.52242 21.403C5.8717 19.1347 7.83563 17.2949 10.187 16.0963C12.5383 14.8977 15.181 14.3893 17.8092 14.63C20.4374 14.8708 22.9438 15.8507 25.0383 17.4566C27.1328 19.0624 28.7298 21.2284 29.6445 23.704L28.0154 24.306C27.2143 22.138 25.8158 20.2411 23.9816 18.8349C22.1473 17.4286 19.9524 16.5704 17.6508 16.3596C15.3492 16.1488 13.0349 16.594 10.9757 17.6436C8.91658 18.6933 7.1967 20.3045 6.01509 22.2909C4.83348 24.2773 4.23845 26.5576 4.29883 28.8681C4.35922 31.1786 5.07255 33.4247 6.3563 35.3467C7.64005 37.2686 9.44175 38.7878 11.5529 39.7285C13.6641 40.6691 16.247 40.9837 18.5345 40.653L18.5345 42.381Z" fill="#008080"/>
<path d="M18.5406 39.8909C16.4837 40.2167 14.3767 39.9641 12.4551 39.1614C10.5334 38.3587 8.87277 37.0376 7.65869 35.3455C6.44461 33.6534 5.7249 31.6571 5.57997 29.5796C5.43504 27.5021 5.8706 25.4252 6.83798 23.581C7.80536 21.7367 9.26647 20.1978 11.0581 19.1361C12.8496 18.0744 14.9012 17.5317 16.9834 17.5687C19.0656 17.6057 21.0966 18.2209 22.8493 19.3456C24.6021 20.4703 26.0076 22.0601 26.9088 23.9376L26.1365 24.3083C25.304 22.5741 24.0057 21.1055 22.3866 20.0666C20.7676 19.0277 18.8916 18.4594 16.9682 18.4252C15.0448 18.3911 13.1498 18.8924 11.4948 19.8731C9.83989 20.8538 8.49024 22.2754 7.59665 23.9789C6.70306 25.6825 6.30073 27.601 6.4346 29.52C6.56848 31.4391 7.23328 33.2831 8.35476 34.8461C9.47623 36.4091 11.0102 37.6295 12.7853 38.3709C14.5603 39.1124 16.6406 39.3318 18.5406 39.0309L18.5406 39.8909Z" fill="#FF7F50"/>
</g>
<mask id="mask2_487_82" style="mask-type:alpha" maskUnits="userSpaceOnUse" x="18" y="12" width="16" height="15">
<rect x="18.7808" y="12.5752" width="14.2261" height="13.4774" fill="#D9D9D9"/>
</mask>
<g mask="url(#mask2_487_82)">
<path d="M18.5554 44.6591C15.4322 45.0295 12.2689 44.477 9.45628 43.0698C6.64361 41.6625 4.30477 39.4622 2.72864 36.7405C1.15252 34.0189 0.408145 30.8952 0.587476 27.7553C0.766806 24.6153 1.86198 21.5967 3.73773 19.0722C5.61348 16.5477 8.18762 14.628 11.1422 13.5501C14.0968 12.4722 17.3024 12.2835 20.3631 13.0071C23.4238 13.7307 26.2055 15.3351 28.3646 17.6219C30.5237 19.9088 31.961 22.9554 32.5076 26.0526H31.5093C30.9968 23.1485 29.659 20.4554 27.6346 18.3111C25.6101 16.1669 23.0019 14.6626 20.1321 13.9841C17.2623 13.3056 14.2566 13.4826 11.4863 14.4933C8.71596 15.5039 6.30234 17.3039 4.54358 19.671C2.78481 22.038 1.75794 24.8684 1.58979 27.8125C1.42164 30.7566 2.11959 33.6855 3.59742 36.2374C5.07526 38.7893 7.26824 40.8524 9.90549 42.1719C12.5427 43.4914 15.5087 44.0095 18.4371 43.6621L18.5554 44.6591Z" fill="#FF7F50"/>
<path d="M18.5345 42.381C15.8351 42.7713 13.0806 42.3633 10.6103 41.2072C8.13997 40.0512 6.06189 38.1976 4.63214 35.875C3.2024 33.5523 2.48346 30.8621 2.56395 28.1359C2.64444 25.4096 3.52082 22.7665 5.0851 20.5323C6.64938 18.298 8.83319 16.5703 11.3674 15.562C13.9016 14.5536 16.6754 14.3088 19.3471 14.8577C22.0187 15.4066 24.4713 16.7252 26.4028 18.6509C28.3342 20.5766 29.6963 23.3825 30.253 26.0525H28.5231C28.0355 23.7143 26.8679 21.5672 25.1765 19.8808C23.4851 18.1944 21.3372 17.0396 18.9975 16.559C16.6579 16.0783 14.2288 16.2927 12.0095 17.1757C9.79018 18.0587 7.87774 19.5718 6.50785 21.5284C5.13795 23.485 4.37047 25.7997 4.29998 28.1871C4.2295 30.5746 4.85909 32.9305 6.11117 34.9645C7.36325 36.9985 9.1831 38.6218 11.3464 39.6342C13.5098 40.6466 15.922 41.0039 18.286 40.6621L18.5345 42.381Z" fill="#008080"/>
<path d="M18.5406 39.8909C16.3983 40.2302 14.2037 39.9419 12.2217 39.0608C10.2397 38.1798 8.55529 36.7437 7.37184 34.926C6.1884 33.1084 5.55659 30.9869 5.55275 28.8179C5.54891 26.649 6.17319 24.5253 7.35019 22.7034C8.52719 20.8816 10.2065 19.4395 12.1854 18.5515C14.1642 17.6634 16.3578 17.3673 18.5013 17.699C20.6448 18.0307 22.6463 18.9759 24.2642 20.4205C25.8821 21.8651 27.1941 23.9603 27.7654 26.0526H26.7671C26.2394 24.1199 25.1881 22.394 23.6936 21.0595C22.1992 19.7251 20.3503 18.852 18.3703 18.5456C16.3903 18.2393 14.364 18.5127 12.5361 19.3331C10.7083 20.1534 9.15701 21.4855 8.06979 23.1683C6.98258 24.8512 6.40591 26.8129 6.40946 28.8164C6.41301 30.8199 6.99662 32.7796 8.08979 34.4586C9.18296 36.1376 10.7389 37.4641 12.5697 38.278C14.4005 39.0918 16.4278 39.3582 18.4066 39.0448L18.5406 39.8909Z" fill="#FF7F50"/>
</g>
<mask id="mask3_487_82" style="mask-type:alpha" maskUnits="userSpaceOnUse" x="31" y="26" width="2" height="1">
<rect x="31.5093" y="26.0525" width="0.998324" height="0.499162" fill="#D9D9D9"/>
</mask>
<g mask="url(#mask3_487_82)">
<circle cx="32.0084" cy="26.0526" r="0.499162" fill="#FF7F50"/>
</g>
<mask id="mask4_487_82" style="mask-type:alpha" maskUnits="userSpaceOnUse" x="26" y="26" width="2" height="1">
<rect x="26.7673" y="26.0525" width="0.998324" height="0.499162" fill="#D9D9D9"/>
</mask>
<g mask="url(#mask4_487_82)">
<circle cx="27.2665" cy="26.0526" r="0.499162" fill="#FF7F50"/>
</g>
<mask id="mask5_487_82" style="mask-type:alpha" maskUnits="userSpaceOnUse" x="28" y="26" width="3" height="1">
<rect x="28.5144" y="26.0525" width="1.74707" height="0.748743" fill="#D9D9D9"/>
</mask>
<g mask="url(#mask5_487_82)">
<circle cx="29.3879" cy="25.9277" r="0.873533" fill="#008080"/>
</g>
<path d="M86.0849 41.3649C83.5169 41.3649 81.2609 40.8369 79.3169 39.7809C77.3969 38.7009 75.8969 37.2369 74.8169 35.3889C73.7369 33.5409 73.1969 31.4409 73.1969 29.0889V15.9129H77.9129V28.9449C77.9129 30.5049 78.2729 31.8969 78.9929 33.1209C79.7129 34.3209 80.6969 35.2689 81.9449 35.9649C83.1929 36.6609 84.5729 37.0089 86.0849 37.0089C87.7169 37.0089 89.1569 36.6609 90.4049 35.9649C91.6769 35.2689 92.6729 34.3209 93.3929 33.1209C94.1129 31.8969 94.4729 30.5049 94.4729 28.9449V15.9129H99.0089V29.0889C99.0089 31.4409 98.4689 33.5409 97.3889 35.3889C96.3089 37.2369 94.8089 38.7009 92.8889 39.7809C90.9689 40.8369 88.7009 41.3649 86.0849 41.3649Z" fill="black"/>
<g filter="url(#filter0_dddd_487_82)">
<path d="M71.3566 41.1489V15.9489H76.0366V41.1489H71.3566ZM50.1526 41.1489V15.9489H54.8326V41.1489H50.1526ZM52.0966 30.9249L52.1326 26.5329H73.6246V30.9249H52.0966Z" fill="black"/>
</g>
<g filter="url(#filter1_ddddd_487_82)">
<path d="M96.493 41.1489V15.9489H110.461C112.621 15.9489 114.421 16.2009 115.861 16.7049C117.325 17.1849 118.429 17.8929 119.173 18.8289C119.917 19.7649 120.289 20.9049 120.289 22.2489C120.289 23.5929 119.845 24.7569 118.957 25.7409C118.093 26.7009 116.809 27.3849 115.105 27.7929L115.321 27.1089C116.401 27.3489 117.421 27.7329 118.381 28.2609C119.341 28.7889 120.121 29.4969 120.721 30.3849C121.321 31.2729 121.621 32.3649 121.621 33.6609C121.621 35.1489 121.309 36.3849 120.685 37.3689C120.085 38.3289 119.281 39.0849 118.273 39.6369C117.265 40.1889 116.161 40.5849 114.961 40.8249C113.761 41.0409 112.573 41.1489 111.397 41.1489H96.493ZM101.065 36.9369H111.541C112.597 36.9369 113.521 36.8169 114.313 36.5769C115.129 36.3369 115.765 35.9649 116.221 35.4609C116.677 34.9329 116.905 34.2849 116.905 33.5169C116.905 32.6289 116.617 31.9449 116.041 31.4649C115.465 30.9849 114.745 30.6489 113.881 30.4569C113.017 30.2409 112.177 30.1329 111.361 30.1329H101.065V36.9369ZM101.065 26.0649H110.965C111.805 26.0649 112.573 25.9449 113.269 25.7049C113.965 25.4649 114.517 25.1169 114.925 24.6609C115.333 24.2049 115.537 23.6649 115.537 23.0409C115.537 22.0089 115.057 21.2769 114.097 20.8449C113.161 20.3889 111.997 20.1609 110.605 20.1609H101.065V26.0649Z" fill="black"/>
</g>
<path d="M11.8985 31.4843C11.2052 31.4843 10.6639 31.3056 10.2745 30.9483C9.89053 30.5856 9.69853 30.0843 9.69853 29.4443C9.69853 28.8096 9.88787 28.311 10.2665 27.9483C10.6505 27.5856 11.1812 27.4043 11.8585 27.4043C12.2745 27.4043 12.6425 27.471 12.9625 27.6043C13.2879 27.7323 13.5412 27.9163 13.7225 28.1563C13.9039 28.391 13.9945 28.6603 13.9945 28.9643C13.9945 29.199 13.9252 29.3803 13.7865 29.5083C13.6532 29.6363 13.4612 29.7003 13.2105 29.7003H10.4345C10.4345 30.0736 10.5599 30.3643 10.8105 30.5723C11.0665 30.775 11.4292 30.8763 11.8985 30.8763C12.1759 30.8763 12.4159 30.847 12.6185 30.7883C12.8265 30.7296 13.0212 30.6336 13.2025 30.5003C13.3359 30.4096 13.4372 30.3643 13.5065 30.3643C13.5705 30.3643 13.6292 30.391 13.6825 30.4443C13.7572 30.519 13.7945 30.5963 13.7945 30.6763C13.7945 30.7563 13.7572 30.831 13.6825 30.9003C13.2452 31.2896 12.6505 31.4843 11.8985 31.4843ZM12.9865 29.1403C13.0825 29.1403 13.1519 29.1216 13.1945 29.0843C13.2372 29.047 13.2585 28.9803 13.2585 28.8843C13.2585 28.6283 13.1279 28.4203 12.8665 28.2603C12.6105 28.095 12.2745 28.0123 11.8585 28.0123C11.4265 28.0123 11.0825 28.1136 10.8265 28.3163C10.5759 28.519 10.4505 28.7936 10.4505 29.1403H12.9865ZM16.5611 31.4843C16.1291 31.4843 15.7531 31.4043 15.4331 31.2443C15.1131 31.079 14.8651 30.8443 14.6891 30.5403C14.5131 30.2363 14.4251 29.8763 14.4251 29.4603C14.4251 29.0603 14.5078 28.7056 14.6731 28.3963C14.8438 28.0816 15.0918 27.839 15.4171 27.6683C15.7424 27.4923 16.1291 27.4043 16.5771 27.4043C16.9398 27.4043 17.2464 27.471 17.4971 27.6043C17.7531 27.7323 17.9851 27.9163 18.1931 28.1563L18.2011 25.7083C18.2011 25.591 18.2331 25.5003 18.2971 25.4363C18.3664 25.367 18.4598 25.3323 18.5771 25.3323C18.6891 25.3323 18.7771 25.367 18.8411 25.4363C18.9051 25.5003 18.9371 25.591 18.9371 25.7083V31.1083C18.9371 31.2256 18.9051 31.319 18.8411 31.3883C18.7771 31.4523 18.6891 31.4843 18.5771 31.4843C18.4598 31.4843 18.3664 31.4523 18.2971 31.3883C18.2331 31.319 18.2011 31.2256 18.2011 31.1083V30.7163C17.8278 31.2283 17.2811 31.4843 16.5611 31.4843ZM16.6411 30.8683C17.1264 30.8683 17.5078 30.743 17.7851 30.4923C18.0624 30.2363 18.2011 29.887 18.2011 29.4443C18.2011 29.007 18.0544 28.6603 17.7611 28.4043C17.4678 28.1483 17.0971 28.0203 16.6491 28.0203C16.1851 28.0203 15.8224 28.151 15.5611 28.4123C15.2998 28.6736 15.1691 29.023 15.1691 29.4603C15.1691 29.919 15.2971 30.2683 15.5531 30.5083C15.8144 30.7483 16.1771 30.8683 16.6411 30.8683ZM21.593 31.4843C21.0597 31.4843 20.6437 31.3323 20.345 31.0283C20.0464 30.719 19.897 30.295 19.897 29.7563V27.7803C19.897 27.663 19.929 27.5723 19.993 27.5083C20.0624 27.439 20.153 27.4043 20.265 27.4043C20.3824 27.4043 20.473 27.439 20.537 27.5083C20.601 27.5723 20.633 27.663 20.633 27.7803V29.7563C20.633 30.1083 20.7264 30.383 20.913 30.5803C21.105 30.7723 21.3717 30.8683 21.713 30.8683C22.129 30.8683 22.4624 30.735 22.713 30.4683C22.969 30.2016 23.097 29.847 23.097 29.4043V27.7803C23.097 27.663 23.129 27.5723 23.193 27.5083C23.2624 27.439 23.3557 27.4043 23.473 27.4043C23.5904 27.4043 23.6784 27.4363 23.737 27.5003C23.801 27.5643 23.833 27.6576 23.833 27.7803V31.1083C23.833 31.231 23.801 31.3243 23.737 31.3883C23.6784 31.4523 23.5904 31.4843 23.473 31.4843C23.3557 31.4843 23.265 31.4523 23.201 31.3883C23.137 31.319 23.105 31.2256 23.105 31.1083V30.7163C22.705 31.2283 22.201 31.4843 21.593 31.4843Z" fill="black"/>
<path d="M37.3726 40.44C35.8793 40.44 34.7726 40.1467 34.0526 39.56C33.3326 38.9733 32.9726 38.2 32.9726 37.24C32.9726 36.44 33.3326 35.7067 34.0526 35.04C34.7726 34.3733 35.8793 34.04 37.3726 34.04C38.866 34.04 39.9726 34.3333 40.6926 34.92C41.4126 35.48 41.7726 36.2533 41.7726 37.24C41.7726 38.04 41.4126 38.7733 40.6926 39.44C39.9726 40.1067 38.866 40.44 37.3726 40.44Z" fill="black"/>
<defs>
<filter id="filter0_dddd_487_82" x="49.1526" y="8.94897" width="50.884" height="39.2" filterUnits="userSpaceOnUse" color-interpolation-filters="sRGB">
<feFlood flood-opacity="0" result="BackgroundImageFix"/>
<feColorMatrix in="SourceAlpha" type="matrix" values="0 0 0 0 0 0 0 0 0 0 0 0 0 0 0 0 0 0 127 0" result="hardAlpha"/>
<feOffset dx="1"/>
<feGaussianBlur stdDeviation="1"/>
<feColorMatrix type="matrix" values="0 0 0 0 0 0 0 0 0 0 0 0 0 0 0 0 0 0 0.26 0"/>
<feBlend mode="normal" in2="BackgroundImageFix" result="effect1_dropShadow_487_82"/>
<feColorMatrix in="SourceAlpha" type="matrix" values="0 0 0 0 0 0 0 0 0 0 0 0 0 0 0 0 0 0 127 0" result="hardAlpha"/>
<feOffset dx="4"/>
<feGaussianBlur stdDeviation="2"/>
<feColorMatrix type="matrix" values="0 0 0 0 0 0 0 0 0 0 0 0 0 0 0 0 0 0 0.22 0"/>
<feBlend mode="normal" in2="effect1_dropShadow_487_82" result="effect2_dropShadow_487_82"/>
<feColorMatrix in="SourceAlpha" type="matrix" values="0 0 0 0 0 0 0 0 0 0 0 0 0 0 0 0 0 0 127 0" result="hardAlpha"/>
<feOffset dx="10"/>
<feGaussianBlur stdDeviation="3"/>
<feColorMatrix type="matrix" values="0 0 0 0 0 0 0 0 0 0 0 0 0 0 0 0 0 0 0.13 0"/>
<feBlend mode="normal" in2="effect2_dropShadow_487_82" result="effect3_dropShadow_487_82"/>
<feColorMatrix in="SourceAlpha" type="matrix" values="0 0 0 0 0 0 0 0 0 0 0 0 0 0 0 0 0 0 127 0" result="hardAlpha"/>
<feOffset dx="17"/>
<feGaussianBlur stdDeviation="3.5"/>
<feColorMatrix type="matrix" values="0 0 0 0 0 0 0 0 0 0 0 0 0 0 0 0 0 0 0.04 0"/>
<feBlend mode="normal" in2="effect3_dropShadow_487_82" result="effect4_dropShadow_487_82"/>
<feBlend mode="normal" in="SourceGraphic" in2="effect4_dropShadow_487_82" result="shape"/>
</filter>
<filter id="filter1_ddddd_487_82" x="95.4929" y="8.94897" width="56.1279" height="39.2" filterUnits="userSpaceOnUse" color-interpolation-filters="sRGB">
<feFlood flood-opacity="0" result="BackgroundImageFix"/>
<feColorMatrix in="SourceAlpha" type="matrix" values="0 0 0 0 0 0 0 0 0 0 0 0 0 0 0 0 0 0 127 0" result="hardAlpha"/>
<feOffset dx="1"/>
<feGaussianBlur stdDeviation="1"/>
<feColorMatrix type="matrix" values="0 0 0 0 0 0 0 0 0 0 0 0 0 0 0 0 0 0 0.37 0"/>
<feBlend mode="normal" in2="BackgroundImageFix" result="effect1_dropShadow_487_82"/>
<feColorMatrix in="SourceAlpha" type="matrix" values="0 0 0 0 0 0 0 0 0 0 0 0 0 0 0 0 0 0 127 0" result="hardAlpha"/>
<feOffset dx="4"/>
<feGaussianBlur stdDeviation="2"/>
<feColorMatrix type="matrix" values="0 0 0 0 0 0 0 0 0 0 0 0 0 0 0 0 0 0 0.32 0"/>
<feBlend mode="normal" in2="effect1_dropShadow_487_82" result="effect2_dropShadow_487_82"/>
<feColorMatrix in="SourceAlpha" type="matrix" values="0 0 0 0 0 0 0 0 0 0 0 0 0 0 0 0 0 0 127 0" result="hardAlpha"/>
<feOffset dx="8"/>
<feGaussianBlur stdDeviation="2.5"/>
<feColorMatrix type="matrix" values="0 0 0 0 0 0 0 0 0 0 0 0 0 0 0 0 0 0 0.19 0"/>
<feBlend mode="normal" in2="effect2_dropShadow_487_82" result="effect3_dropShadow_487_82"/>
<feColorMatrix in="SourceAlpha" type="matrix" values="0 0 0 0 0 0 0 0 0 0 0 0 0 0 0 0 0 0 127 0" result="hardAlpha"/>
<feOffset dx="15"/>
<feGaussianBlur stdDeviation="3"/>
<feColorMatrix type="matrix" values="0 0 0 0 0 0 0 0 0 0 0 0 0 0 0 0 0 0 0.06 0"/>
<feBlend mode="normal" in2="effect3_dropShadow_487_82" result="effect4_dropShadow_487_82"/>
<feColorMatrix in="SourceAlpha" type="matrix" values="0 0 0 0 0 0 0 0 0 0 0 0 0 0 0 0 0 0 127 0" result="hardAlpha"/>
<feOffset dx="23"/>
<feGaussianBlur stdDeviation="3.5"/>
<feColorMatrix type="matrix" values="0 0 0 0 0 0 0 0 0 0 0 0 0 0 0 0 0 0 0.01 0"/>
<feBlend mode="normal" in2="effect4_dropShadow_487_82" result="effect5_dropShadow_487_82"/>
<feBlend mode="normal" in="SourceGraphic" in2="effect5_dropShadow_487_82" result="shape"/>
</filter>
</defs>
</svg>
