<svg width="160" height="49" viewBox="0 0 160 49" fill="none" xmlns="http://www.w3.org/2000/svg">
<g opacity="0.8" clip-path="url(#clip0_135_146)">
<path d="M46.0963 34.6941C45.8713 34.0788 45.6081 33.4835 45.3578 32.932C44.9722 32.0886 44.5793 31.2483 44.1791 30.4114L44.1478 30.3459C40.6125 22.896 36.9106 15.5221 33.0447 8.22959L32.8794 7.91793C32.4774 7.153 32.0685 6.3916 31.6525 5.6338C31.1535 4.67047 30.548 3.76302 29.8469 2.92754C29.0573 2.01035 28.0708 1.27294 26.9569 0.767282C25.8424 0.261414 24.6276 -0.000645946 23.398 -0.00048821C22.1684 -0.000330474 20.9538 0.262041 19.8394 0.768195C18.7256 1.27409 17.7393 2.01171 16.95 2.92906C16.2499 3.76472 15.645 4.67192 15.146 5.63472C14.7262 6.3995 14.3135 7.16791 13.9078 7.93985L13.7547 8.22898C9.88889 15.5219 6.18686 22.8961 2.65127 30.3462L2.60064 30.4528C2.20736 31.276 1.82099 32.1023 1.44158 32.9317C1.19158 33.4828 0.928769 34.0778 0.703456 34.6948C0.0580233 36.375 -0.147748 38.1853 0.104706 39.9624C0.372822 41.7589 1.11876 43.4558 2.26846 44.8846C3.41899 46.3147 4.93299 47.4273 6.66064 48.1125C7.96627 48.6269 9.36193 48.8899 10.7703 48.8868C11.2128 48.8868 11.655 48.8615 12.0947 48.8116C13.8758 48.5906 15.5939 48.0261 17.1485 47.1511C19.1869 46.0357 21.2003 44.401 23.3997 42.0651C25.5991 44.401 27.6122 46.0357 29.651 47.1508C31.2055 48.026 32.9235 48.5907 34.7047 48.8116C35.1443 48.8616 35.5865 48.8867 36.0291 48.8868C37.4375 48.8898 38.8331 48.6269 40.1385 48.1125C41.8662 47.4273 43.3803 46.3147 44.531 44.8846C45.6807 43.4558 46.4266 41.7589 46.6947 39.9624C46.9469 38.1852 46.7413 36.3747 46.0963 34.6941ZM23.3997 37.2406C20.6769 33.8794 18.93 30.758 18.3169 28.1415C18.0657 27.1611 18.0063 26.1434 18.1419 25.1416C18.2491 24.407 18.5262 23.7057 18.9522 23.0906C19.4768 22.4282 20.1506 21.8919 20.9216 21.5232C21.693 21.1545 22.5408 20.9628 23.4001 20.9629C24.2594 20.963 25.1072 21.1549 25.8785 21.5238C26.6494 21.8926 27.323 22.4288 27.8475 23.0912C28.2735 23.7065 28.5505 24.4078 28.6578 25.1425C28.7933 26.1447 28.7337 27.1627 28.4822 28.1434C27.8685 30.7598 26.1219 33.8803 23.3997 37.2406ZM43.5147 39.5199C43.3272 40.7758 42.8057 41.9622 42.0019 42.9611C41.1974 43.9611 40.1387 44.7391 38.9306 45.2182C37.7085 45.695 36.3826 45.864 35.0756 45.7094C33.7173 45.539 32.4081 45.1036 31.2266 44.429C29.4119 43.4362 27.575 41.9121 25.5078 39.676C28.7985 35.7247 30.8535 32.0825 31.6141 28.8382C31.9564 27.4742 32.0306 26.0595 31.8328 24.6686C31.6534 23.4701 31.1967 22.3269 30.4972 21.3254C29.6772 20.2443 28.608 19.3658 27.3756 18.7606C26.1426 18.1551 24.7809 17.8397 23.4 17.8397C22.0191 17.8397 20.6574 18.1551 19.4244 18.7606C18.192 19.3655 17.1226 20.2438 16.3025 21.3248C15.6032 22.3259 15.1465 23.4687 14.9669 24.6668C14.769 26.0572 14.8427 27.4715 15.1844 28.8351C15.9447 32.0804 17.9997 35.7238 21.2913 39.6763C19.2244 41.9121 17.3875 43.4362 15.5728 44.4293C14.3913 45.1038 13.0821 45.5392 11.7238 45.7094C10.4167 45.864 9.09071 45.695 7.86846 45.2182C6.66055 44.7391 5.602 43.9612 4.79752 42.9615C3.99381 41.9624 3.47239 40.7759 3.28502 39.5199C3.10497 38.2434 3.25823 36.9434 3.73064 35.7399C3.91002 35.2481 4.12033 34.766 4.38064 34.1926C4.75297 33.3789 5.13204 32.5682 5.51783 31.7605L5.56846 31.6534C9.08468 24.2448 12.7664 16.9117 16.611 9.65941L16.7647 9.36876C17.1585 8.62524 17.5653 7.85615 17.976 7.11324C18.3689 6.34729 18.8443 5.62425 19.3944 4.95633C19.8826 4.38299 20.4946 3.92151 21.1868 3.60475C21.8789 3.288 22.6343 3.12374 23.3991 3.12368C24.1639 3.12363 24.9193 3.28777 25.6115 3.60442C26.3037 3.92107 26.9158 4.38245 27.4041 4.95572C27.9545 5.62309 28.4302 6.34586 28.8228 7.11172C29.2294 7.84824 29.6328 8.61032 30.0231 9.34715L30.1888 9.65972C34.0334 16.912 37.715 24.2452 41.231 31.654L41.2622 31.7198C41.6466 32.5302 42.0444 33.3678 42.4188 34.1929C42.6794 34.7669 42.89 35.2496 43.0691 35.7396C43.5412 36.9431 43.6945 38.2431 43.5147 39.5196M65.3875 36.8471C64.1344 36.8471 62.9813 36.6027 61.9281 36.1133C60.875 35.6239 59.9728 34.9385 59.1706 34.0581C58.3685 33.1773 57.7669 32.1498 57.3153 31.024C56.8641 29.8495 56.6635 28.5771 56.6635 27.2072C56.6635 25.837 56.9144 24.5155 57.3656 23.3411C57.8169 22.1669 58.4688 21.1391 59.271 20.2093C60.0731 19.3285 61.0256 18.5945 62.1288 18.1051C63.2319 17.6157 64.385 17.371 65.6888 17.371C66.9419 17.371 68.045 17.6157 69.0481 18.1541C70.051 18.6435 70.8531 19.3775 71.5047 20.307L71.6553 17.9094H76.2678V36.358H71.6553L71.5047 33.6667C70.8531 34.6451 70.0006 35.4282 68.8975 36.0153C67.8947 36.554 66.6913 36.8474 65.3878 36.8474M66.5916 32.4435C67.4941 32.4435 68.2963 32.1988 69.0485 31.7584C69.7503 31.269 70.3016 30.6329 70.7531 29.8502C71.1541 29.0671 71.3547 28.1373 71.3547 27.1095C71.3547 26.0817 71.1541 25.1519 70.7531 24.3692C70.3519 23.5861 69.75 22.95 69.0485 22.4609C68.3463 21.9712 67.4941 21.7755 66.5916 21.7755C65.6891 21.7755 64.8869 22.0202 64.1347 22.4606C63.4328 22.95 62.8813 23.5861 62.43 24.3688C62.0288 25.1519 61.8281 26.0817 61.8281 27.1095C61.8281 28.1373 62.0288 29.0671 62.43 29.8498C62.831 30.6329 63.4328 31.269 64.1347 31.7581C64.8869 32.1988 65.6891 32.4435 66.5916 32.4435ZM84.1403 12.9181C84.1403 13.4565 84.04 13.9458 83.7891 14.3372C83.5294 14.7454 83.167 15.0823 82.7363 15.316C82.285 15.5607 81.7838 15.6584 81.2825 15.6584C80.781 15.6584 80.2794 15.5607 79.8281 15.316C79.3974 15.0823 79.035 14.7454 78.7753 14.3372C78.5247 13.8968 78.4244 13.4565 78.4244 12.9181C78.4244 12.38 78.5244 11.8906 78.7753 11.4989C79.026 11.0585 79.3769 10.7651 79.8285 10.5204C80.2794 10.2757 80.781 10.1777 81.2825 10.1777C81.7838 10.1777 82.285 10.2757 82.7363 10.5204C83.1671 10.754 83.5296 11.0908 83.7894 11.4989C83.9897 11.8906 84.1403 12.331 84.1403 12.9181ZM78.7753 36.3093V17.8604H83.7891V36.309L78.7753 36.3093ZM97.1766 22.705V22.7543C96.926 22.6563 96.625 22.6073 96.3741 22.5586C96.0735 22.5096 95.8225 22.5096 95.5219 22.5096C94.1178 22.5096 93.065 22.901 92.3631 23.7331C91.611 24.5648 91.26 25.7393 91.26 27.2562V36.3093H86.2463V17.8604H90.8588L91.0094 20.6497C91.5107 19.6709 92.1125 18.9368 92.9647 18.3988C93.7669 17.8601 94.7194 17.6157 95.8225 17.6157C96.1738 17.6157 96.5247 17.6644 96.8256 17.7134C96.9756 17.7624 97.076 17.7624 97.1766 17.8114V22.705ZM99.1819 36.3093V10.2754H104.196V20.2093C104.898 19.3288 105.7 18.6435 106.703 18.1054C107.706 17.616 108.809 17.3223 110.062 17.3223C111.315 17.3223 112.469 17.567 113.522 18.0564C114.575 18.5458 115.477 19.2308 116.279 20.1116C117.082 20.9924 117.683 22.0202 118.135 23.146C118.586 24.3202 118.786 25.5923 118.786 26.9625C118.786 28.333 118.536 29.6541 118.085 30.8286C117.633 32.0031 116.982 33.0306 116.179 33.9604C115.377 34.8415 114.424 35.5752 113.321 36.0646C112.218 36.554 111.065 36.7987 109.762 36.7987C108.508 36.7987 107.405 36.554 106.402 36.0156C105.399 35.5262 104.597 34.7921 103.945 33.8627L103.795 36.2603L99.1819 36.3093ZM108.859 32.4435C109.762 32.4435 110.564 32.1988 111.316 31.7584C112.018 31.269 112.569 30.6329 113.02 29.8502C113.422 29.0671 113.622 28.1373 113.622 27.1095C113.622 26.0817 113.422 25.1519 113.02 24.3692C112.569 23.5861 112.018 22.95 111.316 22.4609C110.614 21.9712 109.762 21.7755 108.859 21.7755C107.956 21.7755 107.154 22.0202 106.402 22.4606C105.7 22.95 105.148 23.5861 104.697 24.3688C104.296 25.1519 104.096 26.0817 104.096 27.1095C104.096 28.1373 104.296 29.0671 104.697 29.8498C105.098 30.6329 105.7 31.269 106.402 31.7581C107.154 32.1988 107.956 32.4435 108.859 32.4435ZM120.692 36.3093V17.8604H125.304L125.455 20.2583C126.007 19.3772 126.758 18.6922 127.711 18.1541C128.664 17.6157 129.767 17.371 131.021 17.371C132.424 17.371 133.628 17.7134 134.63 18.3498C135.683 18.9858 136.486 19.9156 137.037 21.0901C137.589 22.2646 137.889 23.6835 137.889 25.2986V36.358H132.876V25.9347C132.876 24.6625 132.575 23.6348 131.973 22.9004C131.372 22.1669 130.569 21.7752 129.516 21.7752C128.764 21.7752 128.112 21.9219 127.511 22.2646C126.959 22.607 126.508 23.0474 126.157 23.6838C125.806 24.2708 125.656 25.0046 125.656 25.739V36.309L120.692 36.3093ZM140.396 36.3093V10.2754H145.41V20.2093C146.112 19.3288 146.914 18.6435 147.917 18.1054C148.92 17.616 150.023 17.3223 151.277 17.3223C152.53 17.3223 153.683 17.567 154.736 18.0564C155.789 18.5458 156.692 19.2308 157.494 20.1116C158.297 20.9924 158.898 22.0202 159.349 23.146C159.801 24.3202 160 25.5923 160 26.9625C160 28.333 159.751 29.6541 159.299 30.8286C158.848 32.0031 158.196 33.0306 157.393 33.9604C156.591 34.8415 155.639 35.5752 154.536 36.0646C153.433 36.554 152.279 36.7987 150.976 36.7987C149.723 36.7987 148.619 36.554 147.617 36.0156C146.613 35.5262 145.812 34.7921 145.16 33.8627L145.009 36.2603L140.396 36.3093ZM150.123 32.4435C151.026 32.4435 151.828 32.1988 152.58 31.7584C153.282 31.269 153.833 30.6329 154.285 29.8502C154.686 29.0671 154.887 28.1373 154.887 27.1095C154.887 26.0817 154.686 25.1519 154.285 24.3692C153.884 23.5861 153.282 22.95 152.58 22.4609C151.878 21.9712 151.026 21.7755 150.123 21.7755C149.221 21.7755 148.419 22.0202 147.667 22.4606C146.965 22.95 146.413 23.5861 145.962 24.3688C145.511 25.1519 145.36 26.0817 145.36 27.1095C145.36 28.1373 145.561 29.0671 145.962 29.8498C146.363 30.6329 146.965 31.269 147.667 31.7581C148.419 32.1988 149.171 32.4435 150.123 32.4435Z" fill="#708090"/>
</g>
<defs>
<clipPath id="clip0_135_146">
<rect width="160" height="49" fill="white"/>
</clipPath>
</defs>
</svg>
