<svg width="84" height="84" viewBox="0 0 84 84" fill="none" xmlns="http://www.w3.org/2000/svg">
<g opacity="0.8">
<path d="M61.6875 38.4563C61.6875 38.2375 61.7285 38.0325 61.8105 37.8411C61.8926 37.6497 62.0703 37.554 62.3438 37.554C62.4805 37.554 62.6719 37.595 62.918 37.677C63.1641 37.759 63.3691 37.8411 63.5332 37.9231C64.5996 38.3333 65.6387 38.6477 66.6504 38.8665C67.6621 39.0852 68.7559 39.2083 69.9316 39.2356C70.5059 39.2356 71.1211 39.1946 71.7773 39.1125C72.4336 39.0305 73.0352 38.8528 73.582 38.5793C74.1289 38.3059 74.5801 37.9368 74.9355 37.4719C75.291 37.0071 75.4688 36.4055 75.4688 35.6672C75.4688 34.929 75.25 34.3274 74.8125 33.8625C74.375 33.3977 73.7871 33.0149 73.0488 32.7141C72.3105 32.4133 71.5176 32.1399 70.6699 31.8938C69.8223 31.6477 68.9199 31.3743 67.9629 31.0735C67.0059 30.7727 66.1582 30.4036 65.4199 29.9661C64.6816 29.5286 63.998 28.927 63.3691 28.1614C62.9043 27.5325 62.5625 26.9036 62.3438 26.2747C62.125 25.6458 62.002 24.9211 61.9746 24.1008C61.9746 22.8704 62.248 21.804 62.7949 20.9016C63.3418 19.9993 64.0527 19.2336 64.9277 18.6047C65.8027 17.9758 66.7871 17.5247 67.8809 17.2512C68.9746 16.9778 70.0684 16.8274 71.1621 16.8C71.5996 16.8 72.1738 16.8411 72.8848 16.9231C73.5957 17.0051 74.3066 17.1282 75.0176 17.2922C75.7285 17.4563 76.4121 17.6614 77.0684 17.9075C77.7246 18.1536 78.1758 18.468 78.4219 18.8508C78.6406 19.179 78.75 19.6028 78.75 20.1223V20.6145C78.75 20.7786 78.7363 20.9426 78.709 21.1067C78.709 21.3254 78.668 21.5305 78.5859 21.7219C78.5039 21.9133 78.3262 22.009 78.0527 22.009C77.8613 22.009 77.6836 21.968 77.5195 21.886C77.3555 21.804 77.1777 21.7219 76.9863 21.6399C76.166 21.2571 75.291 20.9836 74.3613 20.8196C73.4316 20.6555 72.5156 20.5735 71.6133 20.5735C71.0664 20.5735 70.5059 20.6145 69.9316 20.6965C69.3574 20.7786 68.8105 20.929 68.291 21.1477C67.7715 21.3665 67.375 21.7083 67.1016 22.1731C66.8281 22.6379 66.6641 23.1985 66.6094 23.8547C66.6094 24.7571 66.9375 25.4543 67.5938 25.9465C68.25 26.4387 69.084 26.8625 70.0957 27.218C71.1074 27.5735 72.1875 27.9016 73.3359 28.2024C74.4844 28.5032 75.5645 28.9407 76.5762 29.5149C77.5879 30.0891 78.4219 30.8 79.0781 31.6477C79.7344 32.4954 80.0762 33.6848 80.1035 35.2161C80.1035 36.5833 79.8164 37.759 79.2422 38.7434C78.668 39.7278 77.916 40.5344 76.9863 41.1633C76.0566 41.7922 74.9902 42.2708 73.7871 42.5989C72.584 42.927 71.3945 43.0774 70.2188 43.05C69.7812 43.05 69.1387 43.009 68.291 42.927C67.4434 42.845 66.582 42.6946 65.707 42.4758C64.832 42.2571 64.0117 42.011 63.2461 41.7375C62.4805 41.4641 62.0156 41.095 61.8516 40.6301C61.7695 40.4661 61.7148 40.2883 61.6875 40.0969C61.6602 39.9055 61.6465 39.7004 61.6465 39.4817V38.9485C61.6465 38.7844 61.6602 38.6204 61.6875 38.4563ZM26.291 18.2356C26.291 17.7708 26.5098 17.5383 26.9473 17.5383H29.6953C30.2422 17.5383 30.6113 17.634 30.8027 17.8254C30.9941 18.0168 31.1719 18.3723 31.3359 18.8918L36.0527 37.3899L40.4004 18.8918C40.5371 18.2903 40.7832 17.9075 41.1387 17.7434C41.4941 17.5793 41.9043 17.4836 42.3691 17.4563C42.6699 17.4563 42.9844 17.47 43.3125 17.4973C43.6406 17.5247 43.9688 17.5383 44.2969 17.5383C44.8164 17.5383 45.1855 17.634 45.4043 17.8254C45.623 18.0168 45.8008 18.3723 45.9375 18.8918L50.3262 37.595L55.166 18.8918C55.3027 18.427 55.4805 18.0852 55.6992 17.8665C55.918 17.6477 56.2871 17.5383 56.8066 17.5383H59.3906C59.8555 17.5383 60.0879 17.7708 60.0879 18.2356C60.0879 18.4543 60.0605 18.6458 60.0059 18.8098C59.9512 18.9739 59.8965 19.1653 59.8418 19.384L53.1152 40.9583C52.9238 41.5872 52.6504 41.9836 52.2949 42.1477C51.9395 42.3118 51.5293 42.3938 51.0645 42.3938C50.7637 42.3938 50.4492 42.3801 50.1211 42.3528C49.793 42.3254 49.4375 42.3118 49.0547 42.3118C48.5078 42.3118 48.1387 42.2161 47.9473 42.0247C47.7559 41.8333 47.5781 41.4641 47.4141 40.9172L43.1074 22.9114L38.8008 40.9172C38.6641 41.5461 38.418 41.9563 38.0625 42.1477C37.707 42.3391 37.2832 42.4348 36.791 42.4348C36.4902 42.4348 36.1758 42.4211 35.8477 42.3938C35.5195 42.3665 35.1504 42.3391 34.7402 42.3118C34.1934 42.3118 33.8242 42.2024 33.6328 41.9836C33.4414 41.7649 33.2637 41.4094 33.0996 40.9172L26.5371 19.343C26.4824 19.179 26.4277 19.0012 26.373 18.8098C26.3184 18.6184 26.291 18.427 26.291 18.2356ZM19.1953 28.4895V26.4387C19.1953 25.3723 19.0859 24.47 18.8672 23.7317C18.6484 22.9934 18.3066 22.4055 17.8418 21.968C17.377 21.5305 16.7754 21.2024 16.0371 20.9836C15.2988 20.7649 14.3965 20.6692 13.3301 20.6965C12.1816 20.6965 11.1562 20.8059 10.2539 21.0247C9.35156 21.2434 8.36719 21.5715 7.30078 22.009C7.10938 22.0637 6.87695 22.1458 6.60352 22.2551C6.33008 22.3645 6.08398 22.4329 5.86523 22.4602C5.5918 22.4602 5.42773 22.3235 5.37305 22.05C5.31836 21.7766 5.27734 21.4758 5.25 21.1477V20.6145C5.25 20.4504 5.26367 20.3137 5.29102 20.2043V19.7122C5.29102 19.5208 5.3457 19.3567 5.45508 19.22C5.70117 18.8645 6.20703 18.5364 6.97266 18.2356C7.73828 17.9348 8.57227 17.6887 9.47461 17.4973C10.377 17.3059 11.2656 17.1418 12.1406 17.0051C13.0156 16.8684 13.6719 16.8137 14.1094 16.8411C17.2539 16.8411 19.6465 17.552 21.2871 18.9739C22.9277 20.3958 23.748 22.7336 23.748 25.9875V35.052H23.8301C23.8301 35.4348 23.8438 35.845 23.8711 36.2825C23.8984 36.72 23.9805 37.1301 24.1172 37.5129C24.1719 37.6497 24.2539 37.8411 24.3633 38.0872C24.4727 38.3333 24.5957 38.6067 24.7324 38.9075C24.8691 39.2083 24.9785 39.468 25.0605 39.6868C25.1426 39.9055 25.1973 40.0696 25.2246 40.179C25.2246 40.343 25.1016 40.5481 24.8555 40.7942C24.6094 41.0403 24.3086 41.3 23.9531 41.5735C23.5977 41.8469 23.2559 42.052 22.9277 42.1887C22.5996 42.3254 22.3535 42.4075 22.1895 42.4348C21.916 42.4348 21.6426 42.2981 21.3691 42.0247C21.0957 41.7512 20.8359 41.4368 20.5898 41.0813C20.3438 40.7258 20.125 40.3567 19.9336 39.9739C19.7422 39.5911 19.5918 39.2903 19.4824 39.0715C17.3223 41.6418 14.5879 42.927 11.2793 42.927C10.1582 42.927 9.13281 42.7629 8.20312 42.4348C7.27344 42.1067 6.45312 41.6282 5.74219 40.9993C5.03125 40.3704 4.51172 39.6047 4.18359 38.7024C3.85547 37.8 3.66406 36.761 3.60938 35.5852C3.60938 34.2454 3.86914 33.0833 4.38867 32.0989C4.9082 31.1145 5.5918 30.2805 6.43945 29.5969C7.28711 28.9133 8.28516 28.4211 9.43359 28.1204C10.582 27.8196 11.7715 27.6555 13.002 27.6282C14.041 27.6282 15.0664 27.7102 16.0781 27.8743C17.0898 28.0383 18.1289 28.2434 19.1953 28.4895ZM19.0723 32.7961V31.6067C18.2246 31.3879 17.377 31.2239 16.5293 31.1145C15.6816 31.0051 14.8066 30.9504 13.9043 30.9504C13.166 30.9504 12.4688 31.0188 11.8125 31.1555C11.1562 31.2922 10.5684 31.5247 10.0488 31.8528C9.5293 32.1809 9.11914 32.6184 8.81836 33.1653C8.51758 33.7122 8.36719 34.4231 8.36719 35.2981C8.36719 36.5833 8.69531 37.5676 9.35156 38.2512C10.0078 38.9348 10.9922 39.2766 12.3047 39.2766C12.9609 39.2766 13.6309 39.1946 14.3145 39.0305C14.998 38.8665 15.6406 38.6204 16.2422 38.2922C16.8438 37.9641 17.377 37.554 17.8418 37.0618C18.3066 36.5696 18.6348 35.9543 18.8262 35.2161C18.9355 34.8333 19.0039 34.4368 19.0312 34.0266C19.0586 33.6165 19.0723 33.2063 19.0723 32.7961ZM75.3047 54.3704C75.6328 54.3704 75.9336 54.4661 76.207 54.6575C76.4805 54.8489 76.6172 55.136 76.6172 55.5188C76.6172 55.7375 76.5488 55.9426 76.4121 56.134C76.2754 56.3254 76.125 56.4895 75.9609 56.6262C73.8008 58.3489 71.3262 59.8528 68.5371 61.1379C65.748 62.4231 62.8223 63.5168 59.7598 64.4192C56.6973 65.3215 53.6484 65.9778 50.6133 66.3879C47.5781 66.7981 44.6797 67.0168 41.918 67.0442C38.1445 67.0442 34.3848 66.7024 30.6387 66.0188C26.8926 65.3352 23.2285 64.3235 19.6465 62.9836C16.0645 61.6438 12.6602 59.9895 9.43359 58.0208C6.20703 56.052 3.18555 53.7688 0.369141 51.1711C0.123047 50.925 0 50.679 0 50.4329C0 50.2415 0.0683594 50.0911 0.205078 49.9817C0.341797 49.8723 0.505859 49.804 0.697266 49.7766C0.888672 49.7766 1.09375 49.845 1.3125 49.9817C7.79297 53.5637 14.4785 56.2981 21.3691 58.1848C28.2598 60.0715 35.4375 61.0149 42.9023 61.0149C48.3984 61.0149 53.7852 60.4543 59.0625 59.3333C64.3398 58.2122 69.5215 56.6125 74.6074 54.5344C74.7441 54.4797 74.8535 54.4387 74.9355 54.4114C75.0176 54.384 75.1406 54.3704 75.3047 54.3704ZM84 51.1301C84 52.1692 83.8633 53.2766 83.5898 54.4524C83.3164 55.6282 82.9336 56.804 82.4414 57.9797C81.9492 59.1555 81.3613 60.2356 80.6777 61.22C79.9941 62.2043 79.2559 63.0383 78.4629 63.7219C78.3535 63.804 78.2441 63.8723 78.1348 63.927C78.0254 63.9817 77.8887 64.0227 77.7246 64.05C77.4238 64.05 77.2734 63.886 77.2734 63.5579C77.2734 63.3391 77.4102 62.8606 77.6836 62.1223C77.957 61.384 78.2852 60.5227 78.668 59.5383C79.0508 58.554 79.3652 57.5559 79.6113 56.5442C79.8574 55.5325 80.0078 54.6165 80.0625 53.7961C80.0625 53.2766 79.9531 52.8801 79.7344 52.6067C79.5156 52.3333 79.2148 52.1145 78.832 51.9504C78.4492 51.7864 78.0527 51.7043 77.6426 51.7043C77.2324 51.7043 76.8086 51.677 76.3711 51.6223H75.7148C74.5664 51.6223 73.4453 51.677 72.3516 51.7864C71.2578 51.8958 70.1367 52.0188 68.9883 52.1555H68.8242C68.6875 52.1555 68.5645 52.1282 68.4551 52.0735C68.3457 52.0188 68.2773 51.8958 68.25 51.7043C68.25 51.5403 68.3047 51.3899 68.4141 51.2532C68.5234 51.1165 68.6465 50.9934 68.7832 50.884C69.3848 50.4192 70.0684 50.0227 70.834 49.6946C71.5996 49.3665 72.4062 49.1067 73.2539 48.9153C74.1016 48.7239 74.9492 48.5735 75.7969 48.4641C76.6445 48.3547 77.4375 48.3 78.1758 48.3C78.4219 48.3 78.8184 48.3137 79.3652 48.3411C79.9121 48.3684 80.4727 48.4231 81.0469 48.5051C81.6211 48.5872 82.168 48.6965 82.6875 48.8333C83.207 48.97 83.5352 49.175 83.6719 49.4485C83.8086 49.6672 83.8906 49.927 83.918 50.2278C83.9453 50.5286 83.9727 50.8293 84 51.1301Z" fill="#708090"/>
</g>
</svg>
