<svg width="204" height="78" viewBox="0 0 204 78" fill="none" xmlns="http://www.w3.org/2000/svg">
<g opacity="0.8">
<path d="M105.36 38.4204C103.694 38.4204 102.493 38.9744 101.275 39.5389V52.3115C102.442 52.4242 103.111 52.4242 104.217 52.4242C108.216 52.4242 108.765 50.567 108.765 47.9738V41.8735C108.765 39.9585 108.138 38.4204 105.36 38.4204ZM78.8013 37.7233C76.0266 37.7233 75.3934 39.268 75.3934 41.1812V42.2561H82.2055V41.1812C82.2055 39.268 81.5723 37.7233 78.8013 37.7233ZM27.351 51.0178C27.351 52.5313 28.0552 53.3173 29.6092 53.3173C31.2763 53.3173 32.2635 52.7661 33.4804 52.1998V49.17H29.8353C28.1093 49.17 27.351 49.4958 27.351 51.0178ZM131.196 38.4204C128.416 38.4204 127.454 39.9585 127.454 41.8735V48.8622C127.454 50.782 128.416 52.3248 131.196 52.3248C133.968 52.3248 134.938 50.782 134.938 48.8622V41.8735C134.937 39.9585 133.967 38.4204 131.196 38.4204ZM13.7305 58.8541H5.56049V38.8002H1.47827V31.8901H5.56142V27.7399C5.56142 22.1018 7.86543 18.75 14.4142 18.75H19.8665V25.662H16.4585C13.9089 25.662 13.7408 26.628 13.7408 28.4303L13.7305 31.8892H19.9038L19.1819 38.7992H13.7305V58.8541ZM41.6523 58.9062H34.843L34.5488 57.1597C31.4397 58.9062 28.665 59.1894 26.8345 59.1894C21.8408 59.1894 19.1828 55.8063 19.1828 51.1277C19.1828 45.6079 22.2844 43.638 27.8329 43.638H33.4804V42.4446C33.4804 39.627 33.1619 38.8002 28.8892 38.8002H21.9034L22.5861 31.8901H30.2219C39.5967 31.8901 41.6523 34.8934 41.6523 42.5005V58.9062ZM64.8073 39.3069C60.57 38.57 59.3531 38.4081 57.3143 38.4081C53.6524 38.4081 52.5457 39.2273 52.5457 42.3812V48.347C52.5457 51.5008 53.6524 52.3238 57.3143 52.3238C59.3531 52.3238 60.57 52.159 64.8073 51.4194V58.1599C61.0958 59.0038 58.6779 59.2254 56.6344 59.2254C47.8629 59.2254 44.3766 54.5476 44.3766 47.7901V42.9494C44.3766 36.1862 47.8629 31.4999 56.6344 31.4999C58.6779 31.4999 61.0958 31.7225 64.8073 32.5701V39.3069ZM90.3746 47.7901H75.3925V48.347C75.3925 51.5008 76.5001 52.3238 80.1611 52.3238C83.4523 52.3238 85.4612 52.159 89.691 51.4194V58.1599C85.6115 59.0038 83.4859 59.2254 79.484 59.2254C70.7116 59.2254 67.2234 54.5476 67.2234 47.7901V42.2552C67.2234 36.3424 69.8113 31.4999 78.8004 31.4999C87.7895 31.4999 90.3746 36.2866 90.3746 42.2552V47.7901ZM116.933 47.9179C116.933 54.4491 115.092 59.2131 103.941 59.2131C99.9138 59.2131 97.5519 58.8541 93.1073 58.1608V20.8261L101.275 19.4442V32.5038C103.04 31.839 105.324 31.5008 107.403 31.5008C115.571 31.5008 116.932 35.2144 116.932 41.1821V47.9179H116.933ZM143.114 48.06C143.114 53.6943 140.82 59.1591 131.223 59.1591C121.621 59.1591 119.284 53.6943 119.284 48.06V42.6198C119.284 36.9827 121.621 31.5169 131.223 31.5169C140.82 31.5169 143.114 36.9827 143.114 42.6198V48.06ZM169.277 48.06C169.277 53.6943 166.98 59.1591 157.385 59.1591C147.783 59.1591 145.447 53.6943 145.447 48.06V42.6198C145.447 36.9827 147.783 31.5169 157.385 31.5169C166.98 31.5169 169.277 36.9827 169.277 42.6198V48.06ZM196.127 58.8541H187.274L179.786 46.179V58.8541H171.616V20.8251L179.786 19.4433V43.9249L187.274 31.8901H196.127L187.953 45.0236L196.127 58.8541ZM157.357 38.4204C154.582 38.4204 153.62 39.9585 153.62 41.8735V48.8622C153.62 50.782 154.582 52.3248 157.357 52.3248C160.128 52.3248 161.109 50.782 161.109 48.8622V41.8735C161.109 39.9585 160.128 38.4204 157.357 38.4204ZM200.79 54.1243C202.165 54.1243 203.261 55.2618 203.261 56.6824C203.261 58.1248 202.164 59.25 200.779 59.25C199.401 59.25 198.283 58.1248 198.283 56.6824C198.283 55.2618 199.401 54.1243 200.779 54.1243H200.79ZM200.779 54.5221C199.671 54.5221 198.764 55.4891 198.764 56.6824C198.764 57.8975 199.672 58.8522 200.79 58.8522C201.909 58.8636 202.802 57.8975 202.802 56.6938C202.802 55.49 201.909 54.5221 200.79 54.5221H200.779ZM200.31 58.1712H199.861V55.3167C200.097 55.2835 200.321 55.2504 200.657 55.2504C201.083 55.2504 201.361 55.3413 201.532 55.4654C201.697 55.5913 201.786 55.7836 201.786 56.0554C201.786 56.4324 201.542 56.6587 201.24 56.7506V56.7724C201.485 56.8188 201.653 57.0442 201.71 57.4638C201.775 57.908 201.843 58.0775 201.887 58.1703H201.417C201.351 58.0775 201.283 57.817 201.227 57.441C201.161 57.0783 200.98 56.9419 200.622 56.9419H200.311V58.1712H200.31ZM200.31 56.5915H200.635C201.003 56.5915 201.315 56.4542 201.315 56.1009C201.315 55.8509 201.138 55.6018 200.635 55.6018C200.488 55.6018 200.386 55.6131 200.31 55.6235V56.5915Z" fill="#708090"/>
</g>
</svg>
