<svg width="116" height="38" viewBox="0 0 116 38" fill="none" xmlns="http://www.w3.org/2000/svg">
<g opacity="0.8" clip-path="url(#clip0_135_139)">
<path d="M112.387 23.2233L115.605 25.3651C114.561 26.901 112.062 29.5361 107.743 29.5361C102.38 29.5361 98.3862 25.3934 98.3862 20.1234C98.3862 14.5155 102.423 10.7109 107.292 10.7109C112.189 10.7109 114.589 14.5998 115.365 16.6993L115.788 17.7703L103.171 22.9838C104.13 24.872 105.627 25.8302 107.743 25.8302C109.861 25.8302 111.328 24.7874 112.387 23.2233ZM102.493 19.8278L110.919 16.3331C110.453 15.1637 109.07 14.3325 107.419 14.3325C105.316 14.3325 102.395 16.1924 102.493 19.8278Z" fill="#708090"/>
<path d="M92.3032 1.11523H96.3677V28.6765H92.3032V1.11523Z" fill="#708090"/>
<path d="M85.8954 11.4437H89.819V28.1834C89.819 35.1299 85.7119 37.9903 80.8567 37.9903C76.284 37.9903 73.5319 34.9186 72.5015 32.4247L76.1005 30.9309C76.7496 32.4667 78.3162 34.2846 80.8567 34.2846C83.9758 34.2846 85.8954 32.3541 85.8954 28.747V27.3944H85.7543C84.8227 28.5215 83.0444 29.536 80.7862 29.536C76.0721 29.536 71.7532 25.4356 71.7532 20.1518C71.7532 14.8395 76.0721 10.697 80.7862 10.697C83.0303 10.697 84.8227 11.6975 85.7543 12.7965H85.8954V11.4437ZM86.1775 20.1518C86.1775 16.8263 83.9617 14.4027 81.139 14.4027C78.2879 14.4027 75.8886 16.8263 75.8886 20.1518C75.8886 23.4347 78.2879 25.816 81.139 25.816C83.9619 25.8303 86.1777 23.4347 86.1777 20.1518" fill="#708090"/>
<path d="M49.4396 20.0813C49.4396 25.5062 45.2056 29.4937 40.0117 29.4937C34.818 29.4937 30.5837 25.4922 30.5837 20.0813C30.5837 14.6283 34.818 10.6548 40.0117 10.6548C45.2056 10.6548 49.4396 14.6283 49.4396 20.0813ZM45.3185 20.0813C45.3185 16.6997 42.8625 14.3745 40.0117 14.3745C37.1608 14.3745 34.7049 16.6997 34.7049 20.0813C34.7049 23.4348 37.1608 25.7881 40.0117 25.7881C42.8627 25.7881 45.3185 23.4348 45.3185 20.0813Z" fill="#708090"/>
<path d="M70.0317 20.1234C70.0317 25.5484 65.7974 29.5359 60.6037 29.5359C55.4098 29.5359 51.1758 25.5481 51.1758 20.1234C51.1758 14.6704 55.4098 10.7109 60.6037 10.7109C65.7974 10.7109 70.0317 14.6564 70.0317 20.1234ZM65.8962 20.1234C65.8962 16.7419 63.4405 14.4166 60.5895 14.4166C57.7386 14.4166 55.2827 16.7419 55.2827 20.1234C55.2827 23.4769 57.7386 25.8302 60.5895 25.8302C63.4546 25.8302 65.8962 23.4629 65.8962 20.1234Z" fill="#708090"/>
<path d="M15.0867 25.4075C9.17296 25.4075 4.54383 20.6449 4.54383 14.7408C4.54383 8.83703 9.17296 4.07436 15.0867 4.07436C18.2765 4.07436 20.6051 5.32836 22.3269 6.93477L25.164 4.10264C22.7647 1.8059 19.5608 0.0583496 15.0867 0.0583496C6.98549 0.0585758 0.168457 6.65316 0.168457 14.7408C0.168457 22.8289 6.98549 29.4233 15.0867 29.4233C19.4621 29.4233 22.7647 27.9861 25.3475 25.3089C28.0008 22.6598 28.8193 18.9398 28.8193 15.9245C28.8193 14.9804 28.7065 14.0082 28.5794 13.2896H15.0867V17.2068H24.6982C24.4159 19.6587 23.6397 21.3354 22.4964 22.4765C21.1133 23.8717 18.9258 25.4075 15.0867 25.4075Z" fill="#708090"/>
</g>
<defs>
<clipPath id="clip0_135_139">
<rect width="116" height="38" fill="white"/>
</clipPath>
</defs>
</svg>
