<svg width="100" height="100" viewBox="0 0 100 100" fill="none" xmlns="http://www.w3.org/2000/svg">
<g opacity="0.8">
<path d="M96.3708 45.2625C95.2384 44.1149 93.8898 43.203 92.403 42.5794C90.9162 41.9557 89.3206 41.6328 87.7083 41.6292C85.3333 41.6292 82.9542 42.5125 81.6458 43.3834C78.9333 45.1917 76.7042 47.15 72.6917 52.3334V56.0584C76.0958 51.625 79.3167 48.1292 81.7625 46.2084C83.3708 44.9167 85.65 44.1209 87.7083 44.1209C93.0208 44.1209 97.5083 48.6084 97.5083 53.9209V56.1625C97.5083 58.7875 96.4792 61.2584 94.6 63.1125C92.7719 64.9398 90.2931 65.9664 87.7083 65.9667C83.3417 65.9667 79.5 62.9709 78.4583 58.8792L76.7 61.0042C77.9792 65.2959 82.6042 68.4584 87.7083 68.4584C89.3206 68.4548 90.9162 68.1318 92.403 67.5082C93.8898 66.8846 95.2384 65.9727 96.3708 64.825C98.7125 62.4834 100 59.4084 100 56.1625V53.9209C100 50.6792 98.7083 47.6 96.3708 45.2625ZM43.0375 44.1209C44.7292 44.1209 46.1917 44.4834 47.5125 45.2292C48.0448 44.5714 48.6167 43.9466 49.225 43.3584C47.8292 42.2917 45.4625 41.6292 43.0375 41.6292C39.5792 41.6292 36.4375 42.8792 34.1958 45.1417C31.9708 47.3917 30.7375 50.5042 30.7375 53.9209V68.4584H33.2292V53.9167C33.2292 48.1459 37.2625 44.1209 43.0375 44.1209ZM66.6958 68.45V53.9167C66.6958 49.45 63.1958 45.9459 58.725 45.9459C56.6417 45.9459 54.6583 46.7917 53.1292 48.3209C52.3841 49.0511 51.7907 49.9214 51.3832 50.8817C50.9756 51.8421 50.7618 52.8735 50.7542 53.9167V56.1584C50.7542 60.4792 54.4083 64.1292 58.725 64.1292C59.9125 64.1292 61.5208 63.8375 62.5083 63.0292V60.4C61.5417 61.1792 60.1333 61.6417 58.725 61.6417C58.0028 61.6501 57.2862 61.514 56.6174 61.2413C55.9485 60.9687 55.341 60.565 54.8305 60.0541C54.3199 59.5432 53.9168 58.9353 53.6446 58.2663C53.3725 57.5973 53.2369 56.8806 53.2458 56.1584V53.9167C53.238 53.1952 53.3744 52.4794 53.6471 51.8113C53.9197 51.1433 54.3231 50.5364 54.8335 50.0264C55.3439 49.5164 55.951 49.1135 56.6193 48.8413C57.2876 48.5692 58.0035 48.4333 58.725 48.4417C59.4468 48.4328 60.1632 48.5682 60.832 48.8401C61.5007 49.112 62.1084 49.5148 62.6192 50.0249C63.1301 50.535 63.5338 51.142 63.8067 51.8103C64.0796 52.4787 64.2162 53.1948 64.2083 53.9167V68.4542L66.6958 68.45ZM0 52.4834V53.2875C0 57.6042 1.6375 61.6334 4.6125 64.6292C6.07855 66.1072 7.82446 67.2781 9.7482 68.0737C11.6719 68.8692 13.7349 69.2733 15.8167 69.2625C19.2333 69.2625 22.2667 68.4875 24.825 66.9667C26.9333 65.7084 27.8667 64.4375 27.95 64.3209V50.9167H15.2083V53.4042H25.4583V63.5459L25.45 63.5542C24.25 64.7542 21.4 66.7625 15.8167 66.7625C14.0531 66.778 12.3043 66.4402 10.6734 65.7689C9.04249 65.0977 7.56254 64.1066 6.32083 62.8542C3.83107 60.2942 2.45333 56.8543 2.4875 53.2834V52.4792C2.4875 49.0209 4.05 45.5792 6.7625 43.025C9.51665 40.4342 13.1563 38.9929 16.9375 38.9959C20.4667 38.9959 22.9292 39.5334 24.9083 40.7292V37.9375C22.85 37.0625 20.3875 36.6667 16.9375 36.6667C7.75833 36.6667 0 43.9125 0 52.4834ZM43.0375 48.4459C43.9847 48.4459 44.7778 48.6014 45.4167 48.9125C45.7292 48.1375 46.0458 47.5 46.5083 46.725C45.8333 46.2417 44.2208 45.95 43.0375 45.95C38.4958 45.95 35.0667 49.3792 35.0667 53.9209V68.4584H37.5583V53.9167C37.5583 50.6917 39.8083 48.4459 43.0375 48.4459ZM24.9083 45.5167V42.5709C22.6542 41.3625 20.1958 40.825 16.9375 40.825C13.6083 40.825 10.4583 42.0459 8.05417 44.2584C5.65 46.475 4.325 49.3959 4.325 52.475V53.2792C4.325 59.7042 9.47917 64.9292 15.8167 64.9292C20.9708 64.9292 23.0875 63.2417 23.625 62.7084V55.2334H15.2083V57.725H21.2917V61.4709L21.2708 61.475C20.4917 61.7875 18.8625 62.4375 15.8125 62.4375C14.6281 62.443 13.4547 62.2113 12.3613 61.7562C11.2678 61.3011 10.2765 60.6317 9.44583 59.7875C8.60076 58.929 7.93322 57.9122 7.48137 56.7955C7.02952 55.6787 6.80223 54.4839 6.8125 53.2792V52.475C6.8125 47.5084 11.45 43.3167 16.9375 43.3167C20.7292 43.3167 22.9792 43.9292 24.9083 45.5167ZM83.6792 50.2084C84.8042 49.0834 86.275 48.4417 87.7083 48.4417C88.4298 48.4333 89.1457 48.5692 89.814 48.8413C90.4823 49.1135 91.0894 49.5164 91.5999 50.0264C92.1103 50.5364 92.5136 51.1433 92.7863 51.8113C93.0589 52.4794 93.1953 53.1952 93.1875 53.9167V56.1584C93.1875 59.2334 90.7792 61.6417 87.7083 61.6417C86.2208 61.6417 84.7833 60.825 83.6583 59.35C82.6483 57.9904 82.0444 56.3723 81.9167 54.6834L79.9 57.1459C80.2958 59.0292 81.275 60.8334 82.6708 62.1042C84.1042 63.4084 85.8958 64.1292 87.7083 64.1292C89.8216 64.127 91.8478 63.2865 93.3421 61.7922C94.8365 60.2978 95.677 58.2717 95.6792 56.1584V53.9167C95.6792 51.8375 94.8375 49.8459 93.3042 48.3209C92.5739 47.5758 91.7036 46.9824 90.7433 46.5749C89.783 46.1673 88.7515 45.9535 87.7083 45.9459C86.3917 45.9459 84.3 46.4209 81.8042 48.6625L81.7958 48.6709C81.1292 49.3375 79.5625 50.9042 78.6083 52.0209C77.0083 53.7709 74.6792 56.4125 72.6917 59.0542V62.9417C74.8958 60.1084 76.1625 58.525 78.2333 56.1334C80.0875 53.9709 82.3833 51.3417 83.6792 50.2084ZM46.4333 56.1584C46.4333 59.4042 47.725 62.4792 50.0667 64.825C51.1993 65.9706 52.5475 66.8808 54.0335 67.5029C55.5195 68.1251 57.114 68.447 58.725 68.45C60.1 68.45 61.5125 68.1584 62.5083 67.6667V65.1792C61.3071 65.6739 60.0239 65.9396 58.725 65.9625C53.4167 65.9625 48.925 61.475 48.925 56.1584V53.9167C48.925 48.6042 53.4167 44.1167 58.725 44.1167C60.0145 44.1095 61.2926 44.3582 62.4854 44.8484C63.6781 45.3385 64.7618 46.0604 65.6736 46.9723C66.5854 47.8841 67.3073 48.9678 67.7975 50.1605C68.2877 51.3532 68.5363 52.6314 68.5292 53.9209V68.4542H71.0208V53.4375C70.8653 50.2665 69.501 47.2754 67.2083 45.0792C64.9391 42.8652 61.8954 41.6243 58.725 41.6209C55.4833 41.6209 52.4083 42.9125 50.0667 45.2584C48.9195 46.3903 48.0079 47.7382 47.3843 49.2243C46.7607 50.7103 46.4375 52.3051 46.4333 53.9167V56.1584ZM75.2583 46.5209C76.0083 45.5741 76.8392 44.6944 77.7417 43.8917V30.7417H75.2583V46.5209ZM79.5792 42.8709V30.7417H82.0667V41.1667C81.1822 41.6511 80.3488 42.2234 79.5792 42.875" fill="#708090"/>
</g>
</svg>
