<svg width="252" height="68" viewBox="0 0 252 68" fill="none" xmlns="http://www.w3.org/2000/svg">
<g opacity="0.8">
<path d="M150.351 13.762V42.656C153.906 42.8218 157.452 43.0222 160.988 43.2586V49.3847C155.38 49.0098 149.766 48.7254 144.149 48.5315V13.762H150.351ZM199.636 13.7654L191.56 32.5356L199.634 53.4234L199.625 53.4272C197.271 53.0914 194.915 52.772 192.556 52.469L188.022 40.7456L183.445 51.3807C181.274 51.1402 179.101 50.9134 176.927 50.7002L184.8 32.4099L177.589 13.7657H184.298L188.336 24.1995L192.824 13.7654H199.636ZM122.863 48.2279V13.7651H140.176V19.9463H129.065V27.9568H137.472V34.0829H129.065V48.2267L122.863 48.2279ZM99.704 19.9466V13.7648H118.887V19.9463H112.396V48.3954C110.326 48.4502 108.258 48.5142 106.195 48.5923V19.9466H99.704ZM78.5013 50.3732V13.766H95.7282V19.9469H84.7026V28.3196C87.2356 28.287 90.8371 28.2504 93.0779 28.2555V34.3822C90.2731 34.3476 87.107 34.4209 84.7026 34.4448V43.7194C88.3751 43.4293 92.0505 43.1775 95.7282 42.9639V49.0906C89.9792 49.4231 84.2362 49.8509 78.5013 50.3738M66.335 36.2115L66.3347 13.7648H72.5368V50.9511C70.2696 51.1847 68.0065 51.4335 65.7476 51.6962L58.5655 31.0125V52.582C56.4966 52.8519 54.4292 53.1341 52.3636 53.4286V13.7654H58.2577L66.335 36.2115ZM166.105 49.7541V13.7654H172.307V50.2677C170.242 50.0831 168.175 49.9127 166.105 49.7541Z" fill="#708090"/>
</g>
</svg>
