<svg width="45" height="45" viewBox="0 0 45 45" fill="none" xmlns="http://www.w3.org/2000/svg">
<rect width="45" height="45" rx="10" fill="#008080"/>
<path d="M30.9 35H14.1C13.5432 34.9995 13.0094 34.8112 12.6157 34.4765C12.222 34.1417 12.0006 33.6877 12 33.2143V11.7857C12.0006 11.3123 12.222 10.8583 12.6157 10.5235C13.0094 10.1888 13.5432 10.0005 14.1 10H30.9C31.4568 10.0005 31.9906 10.1888 32.3843 10.5235C32.778 10.8583 32.9994 11.3123 33 11.7857V26.6232L27.75 24.3911L22.5 26.6232V11.7857H14.1V33.2143H30.9V29.6429H33V33.2143C32.9992 33.6877 32.7776 34.1415 32.384 34.4762C31.9904 34.8109 31.4567 34.9993 30.9 35ZM27.75 22.3946L30.9 23.7339V11.7857H24.6V23.7339L27.75 22.3946Z" fill="white"/>
</svg>
