<svg width="16" height="24" viewBox="0 0 16 24" fill="none" xmlns="http://www.w3.org/2000/svg">
<path d="M7.99976 16C6.41751 16 4.87079 15.5308 3.5552 14.6517C2.2396 13.7727 1.21422 12.5233 0.608723 11.0615C0.00322211 9.59965 -0.155205 7.99112 0.153477 6.43927C0.462159 4.88743 1.22408 3.46197 2.34291 2.34315C3.46173 1.22433 4.88719 0.462403 6.43904 0.153721C7.99088 -0.15496 9.59942 0.00346624 11.0612 0.608967C12.523 1.21447 13.7725 2.23985 14.6515 3.55544C15.5306 4.87103 15.9998 6.41775 15.9998 7.99999C15.9974 10.121 15.1538 12.1544 13.654 13.6542C12.1542 15.154 10.1208 15.9976 7.99976 16ZM7.99976 18C5.83315 17.999 3.7262 17.29 1.99976 15.981V21.5C1.99975 21.9709 2.13277 22.4323 2.38349 22.831C2.63421 23.2296 2.99244 23.5494 3.41692 23.7533C3.8414 23.9573 4.31486 24.0373 4.78278 23.9839C5.25071 23.9306 5.69405 23.7462 6.06176 23.452L7.68776 22.152C7.77636 22.0812 7.88638 22.0427 7.99976 22.0427C8.11314 22.0427 8.22316 22.0812 8.31176 22.152L9.93776 23.452C10.3055 23.7462 10.7488 23.9306 11.2167 23.9839C11.6847 24.0373 12.1581 23.9573 12.5826 23.7533C13.0071 23.5494 13.3653 23.2296 13.616 22.831C13.8667 22.4323 13.9998 21.9709 13.9998 21.5V15.981C12.2732 17.2899 10.1663 17.9989 7.99976 18Z" fill="#118AB2"/>
</svg>
