<svg width="45" height="45" viewBox="0 0 45 45" fill="none" xmlns="http://www.w3.org/2000/svg">
<rect width="45" height="45" rx="10" fill="#FF7F50"/>
<path d="M13.75 15C8.93125 15 5 18.8189 5 23.5C5 28.1871 8.925 32 13.75 32C17.4125 32 19.6487 30.045 21.3675 27.6359C20.855 26.8344 20.425 26.0427 20 25.2838C18.4663 27.7451 16.7475 29.5714 13.75 29.5714C10.3025 29.5714 7.5 26.849 7.5 23.5C7.5 20.1328 10.2837 17.4286 13.75 17.4286C15.7712 17.4286 17.0562 18.1304 18.2425 19.3265C19.4287 20.5214 20.43 22.2481 21.445 24.0695C22.4613 25.8909 23.4912 27.8071 25 29.3431C26.5088 30.8804 28.5888 32 31.25 32C36.0688 32 40 28.1811 40 23.5C40 18.8129 36.075 15 31.25 15C27.6075 15 25.3563 16.8931 23.6325 19.25C24.145 20.0369 24.6138 20.8104 25.0388 21.5644C26.5625 19.1735 28.2625 17.4286 31.25 17.4286C34.6975 17.4286 37.5 20.151 37.5 23.5C37.5 26.8672 34.7163 29.5714 31.25 29.5714C29.2625 29.5714 28.0125 28.8696 26.8362 27.6735C25.6587 26.4786 24.6538 24.7519 23.6325 22.9305C22.6125 21.1091 21.5625 19.1929 20.0388 17.6556C18.515 16.1196 16.435 15 13.75 15Z" fill="white"/>
</svg>
