<svg width="45" height="45" viewBox="0 0 45 45" fill="none" xmlns="http://www.w3.org/2000/svg">
<rect width="45" height="45" rx="10" fill="#FF7F50"/>
<path d="M31.8156 17.399V14.2909C31.8156 13.9611 31.6846 13.6449 31.4515 13.4118C31.2183 13.1786 30.9021 13.0476 30.5724 13.0476H26.221M32.7568 11H12.2432C11.9135 11 11.5973 11.131 11.3641 11.3641C11.131 11.5973 11 11.9135 11 12.2432V32.7568C11 33.0865 11.131 33.4027 11.3641 33.6359C11.5973 33.869 11.9135 34 12.2432 34H32.7568C33.0865 34 33.4027 33.869 33.6359 33.6359C33.869 33.4027 34 33.0865 34 32.7568V12.2432C34 11.9135 33.869 11.5973 33.6359 11.3641C33.4027 11.131 33.0865 11 32.7568 11Z" stroke="white" stroke-width="1.5" stroke-linecap="round" stroke-linejoin="round"/>
<path d="M13 30.1803V31.4796C12.9999 31.5479 13.0143 31.6156 13.0425 31.6787C13.0706 31.7419 13.1119 31.7992 13.1639 31.8476C13.216 31.8959 13.2778 31.9342 13.3458 31.9604C13.4139 31.9865 13.4868 32 13.5604 32H15.5226M29 22.3868L18.9404 27.773V17L29 22.3868Z" stroke="white" stroke-width="1.5" stroke-linecap="round" stroke-linejoin="round"/>
</svg>
