<svg width="24" height="23" viewBox="0 0 24 23" fill="none" xmlns="http://www.w3.org/2000/svg">
<path d="M23.9999 8.48018V20.0002C23.9999 20.2654 23.8946 20.5198 23.707 20.7073C23.5195 20.8948 23.2651 21.0002 22.9999 21.0002C22.7347 21.0002 22.4803 20.8948 22.2928 20.7073C22.1053 20.5198 21.9999 20.2654 21.9999 20.0002V11.7522L14.5999 15.2882C13.8197 15.7487 12.9289 15.9886 12.0229 15.9822C11.0728 15.9837 10.1399 15.7283 9.32291 15.2432L1.94291 11.7302C1.36279 11.4182 0.876721 10.9567 0.535132 10.3935C0.193543 9.83036 0.00888329 9.18603 0.000312565 8.52741C-0.00825816 7.86879 0.159573 7.21988 0.486391 6.648C0.813209 6.07613 1.28711 5.60212 1.85891 5.27518C1.88591 5.25918 1.91491 5.24418 1.94291 5.23018L9.39991 1.67218C10.205 1.20984 11.1187 0.970308 12.047 0.978217C12.9754 0.986126 13.8848 1.24119 14.6819 1.71718L22.0569 5.23018C22.6388 5.55216 23.1252 6.02247 23.4664 6.59331C23.8077 7.16414 23.9918 7.81516 23.9999 8.48018ZM12.0219 17.9802C10.7425 17.983 9.48504 17.6477 8.37691 17.0082L3.99991 14.9192V17.6192C4.00051 18.6867 4.34228 19.7261 4.97534 20.5856C5.6084 21.4452 6.49962 22.0799 7.51891 22.3972C8.97524 22.8153 10.4849 23.0185 11.9999 23.0002C13.5152 23.0172 15.0248 22.8127 16.4809 22.3932C17.5002 22.0759 18.3914 21.4412 19.0245 20.5816C19.6575 19.7221 19.9993 18.6827 19.9999 17.6152V14.9242L15.5409 17.0542C14.4706 17.6691 13.2563 17.9893 12.0219 17.9822V17.9802Z" fill="#EF476F"/>
</svg>
