<svg width="45" height="45" viewBox="0 0 45 45" fill="none" xmlns="http://www.w3.org/2000/svg">
<rect width="45" height="45" rx="10" fill="#008080"/>
<path d="M19.0278 35H25.9722V28.0556H19.0278V35ZM28.0556 35H30.4861C31.6833 35 32.8314 34.5244 33.6779 33.6779C34.5244 32.8314 35 31.6833 35 30.4861V28.0556H28.0556V35ZM35 25.9722V19.0278H28.0556V25.9722H35ZM35 16.9444V14.5139C35 13.3167 34.5244 12.1686 33.6779 11.3221C32.8314 10.4756 31.6833 10 30.4861 10H28.0556V16.9444H35ZM25.9722 10H19.0278V16.9444H25.9722V10ZM10 19.0278V25.9722H16.9444V19.0278H10ZM10 28.0556V30.4861C10 31.6833 10.4756 32.8314 11.3221 33.6779C12.1686 34.5244 13.3167 35 14.5139 35H16.9444V28.0556H10ZM25.9722 19.0278V25.9722H19.0278V19.0278H25.9722Z" fill="white"/>
</svg>
