<svg width="20" height="20" viewBox="0 0 20 20" fill="none" xmlns="http://www.w3.org/2000/svg">
<path fill-rule="evenodd" clip-rule="evenodd" d="M3.10002 0.399902C1.60886 0.399902 0.400024 1.60873 0.400024 3.0999V16.8999C0.400024 18.3911 1.60886 19.5999 3.10002 19.5999H16.9C18.3912 19.5999 19.6 18.3911 19.6 16.8999V3.0999C19.6 1.60873 18.3912 0.399902 16.9 0.399902H3.10002ZM7.93642 7.9363C8.28789 7.58483 8.28789 7.01498 7.93642 6.66351C7.58495 6.31203 7.0151 6.31203 6.66363 6.66351L3.96363 9.36351C3.61216 9.71498 3.61216 10.2848 3.96363 10.6363L6.66363 13.3363C7.0151 13.6878 7.58495 13.6878 7.93642 13.3363C8.28789 12.9848 8.28789 12.415 7.93642 12.0635L5.87282 9.9999L7.93642 7.9363ZM13.3364 6.66351C12.9849 6.31203 12.4151 6.31203 12.0636 6.66351C11.7122 7.01498 11.7122 7.58483 12.0636 7.9363L14.1272 9.9999L12.0636 12.0635C11.7122 12.415 11.7122 12.9848 12.0636 13.3363C12.4151 13.6878 12.9849 13.6878 13.3364 13.3363L16.0364 10.6363C16.3879 10.2848 16.3879 9.71498 16.0364 9.36351L13.3364 6.66351Z" fill="#E7C009"/>
</svg>
